<mxfile host="app.diagrams.net" agent="Mozilla/5.0 (Windows NT 10.0; Win64; x64) AppleWebKit/537.36 (KHTML, like Gecko) Chrome/138.0.0.0 Safari/537.36 Edg/138.0.0.0" version="28.0.4">
  <diagram name="Page-1" id="qf_k4x6BfskCNfA571tH">
    <mxGraphModel dx="916" dy="504" grid="1" gridSize="10" guides="1" tooltips="1" connect="1" arrows="1" fold="1" page="1" pageScale="1" pageWidth="850" pageHeight="1100" math="0" shadow="0">
      <root>
        <mxCell id="0" />
        <mxCell id="1" parent="0" />
        <mxCell id="nDxtczCSto2qQ4ZSunCe-15" style="edgeStyle=orthogonalEdgeStyle;rounded=0;orthogonalLoop=1;jettySize=auto;html=1;" edge="1" parent="1" source="nDxtczCSto2qQ4ZSunCe-1" target="nDxtczCSto2qQ4ZSunCe-14">
          <mxGeometry relative="1" as="geometry">
            <Array as="points">
              <mxPoint x="460" y="242" />
              <mxPoint x="460" y="381" />
            </Array>
          </mxGeometry>
        </mxCell>
        <mxCell id="nDxtczCSto2qQ4ZSunCe-1" value="Kinesis Data Stream" style="outlineConnect=0;dashed=0;verticalLabelPosition=bottom;verticalAlign=top;align=center;html=1;shape=mxgraph.aws3.kinesis_streams;fillColor=#F58534;gradientColor=none;" vertex="1" parent="1">
          <mxGeometry x="320" y="210" width="60" height="63" as="geometry" />
        </mxCell>
        <mxCell id="nDxtczCSto2qQ4ZSunCe-2" value="" style="outlineConnect=0;dashed=0;verticalLabelPosition=bottom;verticalAlign=top;align=center;html=1;shape=mxgraph.aws3.lambda_function;fillColor=#F58534;gradientColor=none;" vertex="1" parent="1">
          <mxGeometry x="86.7" y="80" width="69" height="72" as="geometry" />
        </mxCell>
        <mxCell id="nDxtczCSto2qQ4ZSunCe-3" value="KPL&lt;br&gt;(Kinesis Producer Library)" style="dashed=0;outlineConnect=0;html=1;align=center;labelPosition=center;verticalLabelPosition=bottom;verticalAlign=top;shape=mxgraph.webicons.java;gradientColor=#DFDEDE" vertex="1" parent="1">
          <mxGeometry x="70.00000000000001" y="290" width="102.4" height="102.4" as="geometry" />
        </mxCell>
        <mxCell id="nDxtczCSto2qQ4ZSunCe-4" style="edgeStyle=orthogonalEdgeStyle;rounded=0;orthogonalLoop=1;jettySize=auto;html=1;entryX=0;entryY=0.5;entryDx=0;entryDy=0;entryPerimeter=0;" edge="1" parent="1" source="nDxtczCSto2qQ4ZSunCe-2" target="nDxtczCSto2qQ4ZSunCe-1">
          <mxGeometry relative="1" as="geometry" />
        </mxCell>
        <mxCell id="nDxtczCSto2qQ4ZSunCe-7" value="Library" style="edgeLabel;html=1;align=center;verticalAlign=middle;resizable=0;points=[];" vertex="1" connectable="0" parent="nDxtczCSto2qQ4ZSunCe-4">
          <mxGeometry x="-0.0628" y="-3" relative="1" as="geometry">
            <mxPoint as="offset" />
          </mxGeometry>
        </mxCell>
        <mxCell id="nDxtczCSto2qQ4ZSunCe-5" style="edgeStyle=orthogonalEdgeStyle;rounded=0;orthogonalLoop=1;jettySize=auto;html=1;entryX=0;entryY=0.5;entryDx=0;entryDy=0;entryPerimeter=0;" edge="1" parent="1" source="nDxtczCSto2qQ4ZSunCe-3" target="nDxtczCSto2qQ4ZSunCe-1">
          <mxGeometry relative="1" as="geometry" />
        </mxCell>
        <mxCell id="nDxtczCSto2qQ4ZSunCe-6" value="SDK" style="edgeLabel;html=1;align=center;verticalAlign=middle;resizable=0;points=[];" vertex="1" connectable="0" parent="nDxtczCSto2qQ4ZSunCe-5">
          <mxGeometry x="-0.3269" y="-1" relative="1" as="geometry">
            <mxPoint x="-4" y="-13" as="offset" />
          </mxGeometry>
        </mxCell>
        <mxCell id="nDxtczCSto2qQ4ZSunCe-9" value="message" style="edgeLabel;html=1;align=center;verticalAlign=middle;resizable=0;points=[];" vertex="1" connectable="0" parent="1">
          <mxGeometry x="240" y="241.5" as="geometry" />
        </mxCell>
        <mxCell id="nDxtczCSto2qQ4ZSunCe-10" value="Flink" style="sketch=0;points=[[0,0,0],[0.25,0,0],[0.5,0,0],[0.75,0,0],[1,0,0],[0,1,0],[0.25,1,0],[0.5,1,0],[0.75,1,0],[1,1,0],[0,0.25,0],[0,0.5,0],[0,0.75,0],[1,0.25,0],[1,0.5,0],[1,0.75,0]];outlineConnect=0;fontColor=#232F3E;fillColor=#8C4FFF;strokeColor=#ffffff;dashed=0;verticalLabelPosition=bottom;verticalAlign=top;align=center;html=1;fontSize=12;fontStyle=0;aspect=fixed;shape=mxgraph.aws4.resourceIcon;resIcon=mxgraph.aws4.managed_service_for_apache_flink;" vertex="1" parent="1">
          <mxGeometry x="533.2" y="74" width="78" height="78" as="geometry" />
        </mxCell>
        <mxCell id="nDxtczCSto2qQ4ZSunCe-11" style="edgeStyle=orthogonalEdgeStyle;rounded=0;orthogonalLoop=1;jettySize=auto;html=1;entryX=0;entryY=0.5;entryDx=0;entryDy=0;entryPerimeter=0;" edge="1" parent="1" source="nDxtczCSto2qQ4ZSunCe-1" target="nDxtczCSto2qQ4ZSunCe-10">
          <mxGeometry relative="1" as="geometry" />
        </mxCell>
        <mxCell id="nDxtczCSto2qQ4ZSunCe-12" value="Firehose" style="outlineConnect=0;dashed=0;verticalLabelPosition=bottom;verticalAlign=top;align=center;html=1;shape=mxgraph.aws3.kinesis_firehose;fillColor=#F58534;gradientColor=none;" vertex="1" parent="1">
          <mxGeometry x="551.2" y="210" width="60" height="64.5" as="geometry" />
        </mxCell>
        <mxCell id="nDxtczCSto2qQ4ZSunCe-13" style="edgeStyle=orthogonalEdgeStyle;rounded=0;orthogonalLoop=1;jettySize=auto;html=1;entryX=0;entryY=0.5;entryDx=0;entryDy=0;entryPerimeter=0;" edge="1" parent="1" source="nDxtczCSto2qQ4ZSunCe-1" target="nDxtczCSto2qQ4ZSunCe-12">
          <mxGeometry relative="1" as="geometry" />
        </mxCell>
        <mxCell id="nDxtczCSto2qQ4ZSunCe-14" value="KCL&lt;br&gt;(Kinesis Client Library)" style="dashed=0;outlineConnect=0;html=1;align=center;labelPosition=center;verticalLabelPosition=bottom;verticalAlign=top;shape=mxgraph.webicons.java;gradientColor=#DFDEDE" vertex="1" parent="1">
          <mxGeometry x="530" y="330" width="102.4" height="102.4" as="geometry" />
        </mxCell>
      </root>
    </mxGraphModel>
  </diagram>
</mxfile>
